<svg viewBox="0 0 64 64" fill="none" xmlns="http://www.w3.org/2000/svg">
    <style>
        .l { fill: #000; }
        @media (prefers-color-scheme: dark) { .l { fill: #fff; }}
    </style>
    <g clip-path="url(#a)">
        <path class="l" fill-rule="evenodd" clip-rule="evenodd" d="m32 21.6-3 3h.1c2.4 2.5 3.6 3.7 4.1 5a6.5 6.5 0 0 1 0 4.5c-.5 1.4-1.7 2.6-4 5L32 42l2.6-2.7c2.7-2.6 4-4 4.5-5.5a6.5 6.5 0 0 0 0-4c-.5-1.4-1.8-2.8-4.5-5.4L32 21.6Zm0 0L27.1 17c-2.7-2.7-4-4-5.5-4.5a6.5 6.5 0 0 0-4 0c-1.5.5-2.8 1.8-5.4 4.5l-7.6 7.5C2.1 27 .7 28.4.3 30a6.5 6.5 0 0 0 0 4c.5 1.4 1.8 2.8 4.4 5.4l7.6 7.6c2.6 2.6 4 3.9 5.5 4.4 1.2.4 2.6.4 3.9 0 1.5-.5 2.8-1.8 5.5-4.5L32 42l4.7 4.7c2.7 2.7 4 4 5.5 4.5a6.6 6.6 0 0 0 4 0c1.5-.5 2.8-1.8 5.4-4.5l7.6-7.5c2.6-2.7 4-4 4.4-5.5a6.5 6.5 0 0 0 0-4c-.5-1.5-1.8-2.8-4.4-5.4l-7.6-7.6c-2.6-2.6-4-4-5.5-4.4a6.5 6.5 0 0 0-3.9 0c-1.5.5-2.8 1.8-5.5 4.4l-4.9 5Zm-3 3c-2.4 2.3-3.6 3.5-4 4.9a6.5 6.5 0 0 0 0 4.5c.4 1.3 1.6 2.5 4 5h.1l-2 2c-2.6 2.6-3.9 4-5.4 4.4a6.5 6.5 0 0 1-4 0c-1.5-.4-2.8-1.8-5.4-4.4l-1.7-1.7c-2.7-2.6-4-4-4.5-5.5a6.5 6.5 0 0 1 0-4c.5-1.4 1.8-2.8 4.5-5.4l1.7-1.7c2.6-2.6 4-4 5.5-4.4a6.5 6.5 0 0 1 4 0c1.4.4 2.7 1.8 5.4 4.4l1.8 1.8Z" fill="#000" />
    </g>
    <defs>
        <clipPath id="a">
            <path d="M0 0h64v64H0z"/>
        </clipPath>
    </defs>
</svg>